<svg width="44" height="44" viewBox="0 0 44 44" fill="none" xmlns="http://www.w3.org/2000/svg">
<path d="M36.85 16.9033C33.5317 16.9033 32.175 14.5567 33.825 11.6783C34.7783 10.01 34.21 7.88333 32.5417 6.93L29.37 5.115C27.9217 4.25333 26.0517 4.76666 25.19 6.215L24.9883 6.56333C23.3383 9.44166 20.625 9.44166 18.9567 6.56333L18.755 6.215C17.93 4.76666 16.06 4.25333 14.6117 5.115L11.44 6.93C9.77167 7.88333 9.20334 10.0283 10.1567 11.6967C11.825 14.5567 10.4683 16.9033 7.15001 16.9033C5.24334 16.9033 3.66667 18.4617 3.66667 20.3867V23.6133C3.66667 25.52 5.22501 27.0967 7.15001 27.0967C10.4683 27.0967 11.825 29.4433 10.1567 32.3217C9.20334 33.99 9.77167 36.1167 11.44 37.07L14.6117 38.885C16.06 39.7467 17.93 39.2333 18.7917 37.785L18.9933 37.4367C20.6433 34.5583 23.3567 34.5583 25.025 37.4367L25.2267 37.785C26.0883 39.2333 27.9583 39.7467 29.4067 38.885L32.5783 37.07C34.2467 36.1167 34.815 33.9717 33.8617 32.3217C32.1933 29.4433 33.55 27.0967 36.8683 27.0967C38.775 27.0967 40.3517 25.5383 40.3517 23.6133V20.3867C40.3333 18.48 38.775 16.9033 36.85 16.9033ZM22 27.9583C18.7183 27.9583 16.0417 25.2817 16.0417 22C16.0417 18.7183 18.7183 16.0417 22 16.0417C25.2817 16.0417 27.9583 18.7183 27.9583 22C27.9583 25.2817 25.2817 27.9583 22 27.9583Z" fill="#292D32"/>
</svg>
