<svg width="32" height="32" viewBox="0 0 32 32" fill="none" xmlns="http://www.w3.org/2000/svg">
<g clip-path="url(#clip0_3_185)">
<path fill-rule="evenodd" clip-rule="evenodd" d="M0.768857 3.5935C0.01828 5.03843 0.01828 6.93673 0.01828 10.7333V21.2667C0.01828 25.0633 0.01828 26.9616 0.768857 28.4065C1.40136 29.6241 2.39416 30.6169 3.61178 31.2494C5.05671 32 6.95501 32 10.7516 32H21.2849C25.0815 32 26.9799 32 28.4248 31.2494C29.6424 30.6169 30.6352 29.6241 31.2677 28.4065C32.0183 26.9616 32.0183 25.0633 32.0183 21.2667V10.7333C32.0183 6.93673 32.0183 5.03843 31.2677 3.5935C30.6352 2.37588 29.6424 1.38308 28.4248 0.750577C26.9799 0 25.0815 0 21.2849 0H10.7516C6.95501 0 5.05671 0 3.61178 0.750577C2.39416 1.38308 1.40136 2.37588 0.768857 3.5935ZM11.2026 4.43395C12.4438 4.37747 12.8403 4.36365 16.0005 4.36365H15.9969C19.158 4.36365 19.5531 4.37747 20.7943 4.43395C22.033 4.49068 22.8791 4.6868 23.6209 4.97456C24.3869 5.27153 25.0342 5.6691 25.6814 6.31637C26.3287 6.96316 26.7262 7.61237 27.0244 8.37771C27.3105 9.11759 27.5068 9.96316 27.565 11.202C27.6208 12.4432 27.6353 12.8398 27.6353 16C27.6353 19.1603 27.6208 19.5559 27.565 20.7971C27.5068 22.0354 27.3105 22.8812 27.0244 23.6213C26.7262 24.3864 26.3287 25.0356 25.6814 25.6824C25.0349 26.3297 24.3867 26.7283 23.6216 27.0255C22.8813 27.3132 22.0347 27.5093 20.796 27.5661C19.5548 27.6226 19.1594 27.6364 15.999 27.6364C12.8391 27.6364 12.4428 27.6226 11.2016 27.5661C9.9631 27.5093 9.11731 27.3132 8.37697 27.0255C7.61214 26.7283 6.96295 26.3297 6.31643 25.6824C5.66941 25.0356 5.27185 24.3864 4.97441 23.6211C4.6869 22.8812 4.49078 22.0356 4.43382 20.7969C4.37758 19.5556 4.36351 19.1603 4.36351 16C4.36351 12.8398 4.37806 12.4429 4.43357 11.2017C4.48933 9.9634 4.68569 9.11759 4.97416 8.37747C5.27234 7.61237 5.6699 6.96316 6.31715 6.31637C6.96392 5.66934 7.61311 5.27177 8.37842 4.97456C9.11828 4.6868 9.96383 4.49068 11.2026 4.43395ZM15.6127 6.4605C15.3774 6.4604 15.1593 6.4603 14.9566 6.46062V6.45771C12.788 6.46013 12.372 6.47468 11.2986 6.52316C10.1641 6.57528 9.54809 6.76437 9.13792 6.92437C8.5949 7.13577 8.20704 7.38789 7.79977 7.79516C7.39251 8.20243 7.13992 8.59031 6.92901 9.13334C6.76975 9.54353 6.58017 10.1593 6.5283 11.2938C6.47254 12.5205 6.46139 12.887 6.46139 15.9944C6.46139 19.1018 6.47254 19.4703 6.5283 20.697C6.57993 21.8315 6.76975 22.4473 6.92901 22.857C7.1404 23.4003 7.39251 23.7872 7.79977 24.1944C8.20704 24.6017 8.5949 24.8538 9.13792 25.0647C9.54833 25.224 10.1641 25.4136 11.2986 25.466C12.5252 25.5217 12.8934 25.5338 16.0005 25.5338C19.1073 25.5338 19.4758 25.5217 20.7024 25.466C21.8369 25.4141 22.4531 25.225 22.8628 25.065C23.4061 24.8541 23.7927 24.6019 24.2 24.1947C24.6073 23.7876 24.8599 23.401 25.0708 22.858C25.23 22.4483 25.4196 21.8325 25.4715 20.698C25.5272 19.4713 25.5394 19.1028 25.5394 15.9973C25.5394 12.8919 25.5272 12.5234 25.4715 11.2967C25.4198 10.1622 25.23 9.54644 25.0708 9.13674C24.8594 8.59371 24.6073 8.20583 24.2 7.79856C23.793 7.39128 23.4058 7.13916 22.8628 6.92825C22.4527 6.76898 21.8369 6.57941 20.7024 6.52753C19.4755 6.47177 19.1073 6.46062 16.0005 6.46062C15.8662 6.46062 15.737 6.46056 15.6127 6.4605ZM20.8154 9.78862C20.8154 9.01746 21.4408 8.39274 22.2117 8.39274V8.39225C22.9826 8.39225 23.608 9.01771 23.608 9.78862C23.608 10.5595 22.9826 11.185 22.2117 11.185C21.4408 11.185 20.8154 10.5595 20.8154 9.78862ZM10.0249 16C10.0249 12.7 12.7003 10.0244 16.0003 10.0243C19.3003 10.0243 21.9751 12.6999 21.9751 16C21.9751 19.3001 19.3005 21.9746 16.0005 21.9746C12.7005 21.9746 10.0249 19.3001 10.0249 16ZM19.8792 16C19.8792 13.8577 18.1425 12.1212 16.0005 12.1212C13.8583 12.1212 12.1218 13.8577 12.1218 16C12.1218 18.1421 13.8583 19.8788 16.0005 19.8788C18.1425 19.8788 19.8792 18.1421 19.8792 16Z" fill="url(#paint0_radial_3_185)"/>
<path fill-rule="evenodd" clip-rule="evenodd" d="M0.768857 3.5935C0.01828 5.03843 0.01828 6.93673 0.01828 10.7333V21.2667C0.01828 25.0633 0.01828 26.9616 0.768857 28.4065C1.40136 29.6241 2.39416 30.6169 3.61178 31.2494C5.05671 32 6.95501 32 10.7516 32H21.2849C25.0815 32 26.9799 32 28.4248 31.2494C29.6424 30.6169 30.6352 29.6241 31.2677 28.4065C32.0183 26.9616 32.0183 25.0633 32.0183 21.2667V10.7333C32.0183 6.93673 32.0183 5.03843 31.2677 3.5935C30.6352 2.37588 29.6424 1.38308 28.4248 0.750577C26.9799 0 25.0815 0 21.2849 0H10.7516C6.95501 0 5.05671 0 3.61178 0.750577C2.39416 1.38308 1.40136 2.37588 0.768857 3.5935ZM11.2026 4.43395C12.4438 4.37747 12.8403 4.36365 16.0005 4.36365H15.9969C19.158 4.36365 19.5531 4.37747 20.7943 4.43395C22.033 4.49068 22.8791 4.6868 23.6209 4.97456C24.3869 5.27153 25.0342 5.6691 25.6814 6.31637C26.3287 6.96316 26.7262 7.61237 27.0244 8.37771C27.3105 9.11759 27.5068 9.96316 27.565 11.202C27.6208 12.4432 27.6353 12.8398 27.6353 16C27.6353 19.1603 27.6208 19.5559 27.565 20.7971C27.5068 22.0354 27.3105 22.8812 27.0244 23.6213C26.7262 24.3864 26.3287 25.0356 25.6814 25.6824C25.0349 26.3297 24.3867 26.7283 23.6216 27.0255C22.8813 27.3132 22.0347 27.5093 20.796 27.5661C19.5548 27.6226 19.1594 27.6364 15.999 27.6364C12.8391 27.6364 12.4428 27.6226 11.2016 27.5661C9.9631 27.5093 9.11731 27.3132 8.37697 27.0255C7.61214 26.7283 6.96295 26.3297 6.31643 25.6824C5.66941 25.0356 5.27185 24.3864 4.97441 23.6211C4.6869 22.8812 4.49078 22.0356 4.43382 20.7969C4.37758 19.5556 4.36351 19.1603 4.36351 16C4.36351 12.8398 4.37806 12.4429 4.43357 11.2017C4.48933 9.9634 4.68569 9.11759 4.97416 8.37747C5.27234 7.61237 5.6699 6.96316 6.31715 6.31637C6.96392 5.66934 7.61311 5.27177 8.37842 4.97456C9.11828 4.6868 9.96383 4.49068 11.2026 4.43395ZM15.6127 6.4605C15.3774 6.4604 15.1593 6.4603 14.9566 6.46062V6.45771C12.788 6.46013 12.372 6.47468 11.2986 6.52316C10.1641 6.57528 9.54809 6.76437 9.13792 6.92437C8.5949 7.13577 8.20704 7.38789 7.79977 7.79516C7.39251 8.20243 7.13992 8.59031 6.92901 9.13334C6.76975 9.54353 6.58017 10.1593 6.5283 11.2938C6.47254 12.5205 6.46139 12.887 6.46139 15.9944C6.46139 19.1018 6.47254 19.4703 6.5283 20.697C6.57993 21.8315 6.76975 22.4473 6.92901 22.857C7.1404 23.4003 7.39251 23.7872 7.79977 24.1944C8.20704 24.6017 8.5949 24.8538 9.13792 25.0647C9.54833 25.224 10.1641 25.4136 11.2986 25.466C12.5252 25.5217 12.8934 25.5338 16.0005 25.5338C19.1073 25.5338 19.4758 25.5217 20.7024 25.466C21.8369 25.4141 22.4531 25.225 22.8628 25.065C23.4061 24.8541 23.7927 24.6019 24.2 24.1947C24.6073 23.7876 24.8599 23.401 25.0708 22.858C25.23 22.4483 25.4196 21.8325 25.4715 20.698C25.5272 19.4713 25.5394 19.1028 25.5394 15.9973C25.5394 12.8919 25.5272 12.5234 25.4715 11.2967C25.4198 10.1622 25.23 9.54644 25.0708 9.13674C24.8594 8.59371 24.6073 8.20583 24.2 7.79856C23.793 7.39128 23.4058 7.13916 22.8628 6.92825C22.4527 6.76898 21.8369 6.57941 20.7024 6.52753C19.4755 6.47177 19.1073 6.46062 16.0005 6.46062C15.8662 6.46062 15.737 6.46056 15.6127 6.4605ZM20.8154 9.78862C20.8154 9.01746 21.4408 8.39274 22.2117 8.39274V8.39225C22.9826 8.39225 23.608 9.01771 23.608 9.78862C23.608 10.5595 22.9826 11.185 22.2117 11.185C21.4408 11.185 20.8154 10.5595 20.8154 9.78862ZM10.0249 16C10.0249 12.7 12.7003 10.0244 16.0003 10.0243C19.3003 10.0243 21.9751 12.6999 21.9751 16C21.9751 19.3001 19.3005 21.9746 16.0005 21.9746C12.7005 21.9746 10.0249 19.3001 10.0249 16ZM19.8792 16C19.8792 13.8577 18.1425 12.1212 16.0005 12.1212C13.8583 12.1212 12.1218 13.8577 12.1218 16C12.1218 18.1421 13.8583 19.8788 16.0005 19.8788C18.1425 19.8788 19.8792 18.1421 19.8792 16Z" fill="#ECEDE8"/>
</g>
<defs>
<radialGradient id="paint0_radial_3_185" cx="0" cy="0" r="1" gradientUnits="userSpaceOnUse" gradientTransform="translate(8.51832 34.4647) rotate(-90) scale(31.7144 29.4969)">
<stop stop-color="#FFDD55"/>
<stop offset="0.1" stop-color="#FFDD55"/>
<stop offset="0.5" stop-color="#FF543E"/>
<stop offset="1" stop-color="#C837AB"/>
</radialGradient>
<clipPath id="clip0_3_185">
<rect width="32" height="32" fill="white"/>
</clipPath>
</defs>
</svg>
