<svg width="44" height="44" viewBox="0 0 44 44" fill="none" xmlns="http://www.w3.org/2000/svg">
<path d="M31.8817 28.7283L24.475 22H19.5067L12.1 28.7283C10.0283 30.5983 9.35 33.4767 10.3583 36.08C11.3667 38.665 13.8233 40.3333 16.5917 40.3333H27.39C30.1767 40.3333 32.615 38.665 33.6233 36.08C34.6317 33.4767 33.9533 30.5983 31.8817 28.7283ZM25.3367 33.2567H18.6633C17.9667 33.2567 17.4167 32.6883 17.4167 32.01C17.4167 31.3317 17.985 30.7633 18.6633 30.7633H25.3367C26.0333 30.7633 26.5833 31.3317 26.5833 32.01C26.5833 32.6883 26.015 33.2567 25.3367 33.2567Z" fill="#292D32"/>
<path d="M33.6417 7.91999C32.6333 5.33499 30.1767 3.66666 27.4083 3.66666H16.5917C13.8233 3.66666 11.3667 5.33499 10.3583 7.91999C9.36833 10.5233 10.0467 13.4017 12.1183 15.2717L19.525 22H24.4933L31.9 15.2717C33.9533 13.4017 34.6317 10.5233 33.6417 7.91999ZM25.3367 13.255H18.6633C17.9667 13.255 17.4167 12.6867 17.4167 12.0083C17.4167 11.33 17.985 10.7617 18.6633 10.7617H25.3367C26.0333 10.7617 26.5833 11.33 26.5833 12.0083C26.5833 12.6867 26.015 13.255 25.3367 13.255Z" fill="#292D32"/>
</svg>
