<svg width="44" height="44" viewBox="0 0 44 44" fill="none" xmlns="http://www.w3.org/2000/svg">
<path d="M29.6817 3.66666H14.3184C7.64502 3.66666 3.66669 7.64499 3.66669 14.3183V29.6633C3.66669 36.355 7.64502 40.3333 14.3184 40.3333H29.6634C36.3367 40.3333 40.315 36.355 40.315 29.6817V14.3183C40.3334 7.64499 36.355 3.66666 29.6817 3.66666ZM27.115 30.4333C26.84 30.7817 26.4367 30.965 26.0334 30.965C25.74 30.965 25.4467 30.8733 25.19 30.6717C23.2467 29.1683 20.735 29.1683 18.7917 30.6717C18.1867 31.13 17.325 31.02 16.8667 30.4333C16.4084 29.8283 16.5184 28.9667 17.105 28.5083C20.02 26.2533 23.9434 26.2533 26.8584 28.5083C27.4817 28.9667 27.5917 29.8283 27.115 30.4333ZM31.1667 24.7683C30.8917 25.1167 30.4884 25.3 30.085 25.3C29.7917 25.3 29.4984 25.2083 29.2417 25.0067C24.8417 21.615 19.1767 21.615 14.7767 25.0067C14.1717 25.4833 13.31 25.3733 12.8334 24.7683C12.3567 24.1633 12.485 23.3017 13.0717 22.8433C18.48 18.6633 25.4834 18.6633 30.8917 22.8433C31.515 23.3017 31.625 24.1633 31.1667 24.7683ZM34.0817 19.1033C33.8067 19.4517 33.4034 19.635 33 19.635C32.7067 19.635 32.4134 19.5433 32.1567 19.3417C25.9784 14.575 18.0034 14.575 11.8434 19.3417C11.2384 19.8 10.3767 19.69 9.91835 19.1033C9.46002 18.4983 9.57002 17.6367 10.1567 17.1783C17.3434 11.6233 26.6384 11.6233 33.8434 17.1783C34.4484 17.6367 34.5584 18.4983 34.0817 19.1033Z" fill="#2E2E2E"/>
</svg>
